<?xml version="1.0" encoding="iso-8859-1"?>
<!-- Generator: Adobe Illustrator 19.0.0, SVG Export Plug-In . SVG Version: 6.00 Build 0)  -->
<svg xmlns="http://www.w3.org/2000/svg" xmlns:xlink="http://www.w3.org/1999/xlink" version="1.1" id="Layer_1" x="0px" y="0px" viewBox="0 0 512 512" style="enable-background:new 0 0 512 512;" xml:space="preserve" width="512px" height="512px">
<g>
	<g>
		<g>
			<path d="M445.369,245.551c-1.469-4.216-6.079-6.446-10.294-4.973c-4.216,1.468-6.443,6.077-4.973,10.294     c6.775,19.447,10.211,39.853,10.211,60.65c-0.001,101.628-82.683,184.31-184.312,184.31S71.689,413.149,71.689,311.52     S154.371,127.21,256,127.21c67.645,0,129.747,36.962,162.07,96.463c2.133,3.922,7.038,5.375,10.963,3.246     c3.924-2.132,5.375-7.04,3.246-10.963c-7.087-13.046-15.511-25.076-25.015-36.001l24.609-25.418     c1.507-1.558,2.327-3.656,2.273-5.823c-0.054-2.167-0.975-4.222-2.559-5.703l-26.72-25c-3.208-3-8.221-2.893-11.295,0.244     l-26.114,26.636c-20.781-13.898-44.101-23.876-68.823-29.25V98.455h26.476c4.466,0,8.084-3.618,8.084-8.084v-8.99V48.794V38.481     c0-4.466-3.618-8.084-8.084-8.084h-28.066C291.632,12.653,275.094,0,256,0c-19.097,0-35.634,12.653-41.045,30.397h-28.066     c-4.466,0-8.084,3.618-8.084,8.084v10.312v32.588v8.99c0,4.466,3.618,8.084,8.084,8.084h26.475v17.164     C123.232,135.218,55.52,215.604,55.52,311.52C55.52,422.065,145.454,512,256,512s200.48-89.935,200.48-200.48     C456.48,288.908,452.742,266.712,445.369,245.551z M399.59,135.211l14.947,13.987l-18.369,18.973     c-4.939-4.828-10.106-9.393-15.492-13.668L399.59,135.211z M317.028,46.566v2.228h-0.001v32.587v0.905h-11.529     c0.033-0.297,0.054-0.599,0.054-0.905V48.794c0-0.774-0.115-1.52-0.318-2.228H317.028z M282.467,112.801     c-8.703-1.156-17.54-1.759-26.468-1.759c-8.971,0-17.805,0.601-26.468,1.749V98.455h0.001h52.934V112.801z M261.79,82.286     h-11.583c0.033-0.297,0.054-0.599,0.054-0.905V48.794c0-0.774-0.115-1.52-0.319-2.229h12.112     c-0.203,0.708-0.318,1.454-0.318,2.228v32.588C261.737,81.687,261.757,81.989,261.79,82.286z M289.701,46.565     c-0.203,0.708-0.318,1.454-0.318,2.228v32.588c0,0.306,0.021,0.608,0.054,0.905h-11.585c0.033-0.297,0.054-0.599,0.054-0.905     V48.794c-0.001-0.774-0.116-1.52-0.319-2.229H289.701z M256,16.168c10.131,0,19.112,5.711,23.64,14.228H232.36     C236.887,21.879,245.867,16.168,256,16.168z M234.411,46.566c-0.203,0.708-0.318,1.454-0.318,2.228v32.587     c0,0.306,0.02,0.608,0.054,0.905h-11.584c0.033-0.297,0.054-0.599,0.054-0.905V48.794c0-0.774-0.115-1.52-0.318-2.228H234.411z      M206.503,82.286h-11.529v-0.905h-0.001V48.794v-2.229h11.794c-0.203,0.708-0.318,1.454-0.318,2.228v32.588     C206.449,81.687,206.47,81.989,206.503,82.286z" fill="#171717"/>
			<path d="M365.202,202.32c-0.268-0.268-0.556-0.505-0.852-0.73c-27.898-27.501-66.174-44.503-108.35-44.503     c-42.178,0-80.454,17.003-108.353,44.505c-0.293,0.222-0.58,0.459-0.847,0.727c-0.267,0.267-0.504,0.554-0.727,0.847     c-27.504,27.899-44.507,66.175-44.507,108.353c0,42.179,17.004,80.456,44.508,108.355c0.222,0.292,0.458,0.578,0.725,0.845     c0.266,0.267,0.552,0.502,0.844,0.724c27.899,27.505,66.176,44.508,108.355,44.508c42.177,0,80.452-17.003,108.351-44.505     c0.294-0.223,0.582-0.46,0.85-0.729c0.268-0.268,0.506-0.556,0.729-0.85c27.5-27.899,44.502-66.174,44.502-108.35     c0-42.175-17.001-80.45-44.501-108.348C365.708,202.877,365.47,202.589,365.202,202.32z M378.35,319.604h15.672     c-1.857,32.045-14.676,61.193-34.756,83.749l-11.036-11.035c-3.156-3.156-8.275-3.157-11.433,0.001     c-3.157,3.157-3.157,8.276,0.001,11.432l11.034,11.034c-22.000,20.08-51.702,32.9-83.748,34.757V433.87     c0-4.466-3.619-8.084-8.084-8.084s-8.084,3.618-8.084,8.084v15.673c-32.046-1.857-61.194-14.677-83.749-34.757l11.034-11.036     c3.157-3.157,3.157-8.276-0.001-11.432c-3.156-3.156-8.275-3.157-11.432,0.001l-11.033,11.034     c-20.08-22.000-32.899-51.703-34.757-83.749h15.672c4.466,0,8.084-3.618,8.084-8.084c0-4.466-3.618-8.084-8.084-8.084h-15.672     c1.857-32.045,14.677-61.193,34.757-83.749l11.033,11.034c1.579,1.579,3.648,2.368,5.717,2.368c2.068,0,4.138-0.789,5.716-2.367     c3.158-3.157,3.158-8.276,0.001-11.432l-11.034-11.035c22.000-20.08,51.703-32.9,83.749-34.756v15.673     c0,4.466,3.618,8.084,8.084,8.084c4.466,0,8.084-3.619,8.084-8.084v-15.673c32.045,1.857,61.193,14.676,83.748,34.757     l-11.034,11.033c-3.158,3.157-3.158,8.276-0.001,11.432c1.579,1.579,3.648,2.368,5.717,2.368c2.068,0,4.138-0.789,5.716-2.367     l11.036-11.034c20.08,22.000,32.898,51.703,34.756,83.748h-15.672c-4.466,0-8.084,3.618-8.084,8.084     C370.266,315.986,373.884,319.604,378.35,319.604z" fill="#171717"/>
			<path d="M351,303.437h-70.569c-0.216-0.651-0.451-1.298-0.722-1.94c-2.946-6.968-8.703-12.122-15.625-14.408v-45.101     c0-4.466-3.619-8.084-8.084-8.084s-8.084,3.619-8.084,8.084v45.1c-0.652,0.217-1.301,0.453-1.94,0.723     c-13.073,5.529-19.211,20.661-13.685,33.732c4.037,9.55,13.345,15.722,23.716,15.722c3.45,0,6.82-0.686,10.015-2.036     c7.096-2.999,12.143-8.829,14.396-15.623H351c4.466,0,8.084-3.618,8.084-8.084C359.084,307.056,355.465,303.437,351,303.437z      M259.725,320.336c-1.192,0.504-2.444,0.76-3.718,0.76c-3.859,0-7.322-2.296-8.825-5.85c-2.056-4.861,0.227-10.487,5.089-12.543     c1.192-0.504,2.445-0.76,3.719-0.76c3.859,0,7.324,2.297,8.826,5.85C266.872,312.654,264.589,318.281,259.725,320.336z" fill="#171717"/>
		</g>
	</g>
</g>
<g>
</g>
<g>
</g>
<g>
</g>
<g>
</g>
<g>
</g>
<g>
</g>
<g>
</g>
<g>
</g>
<g>
</g>
<g>
</g>
<g>
</g>
<g>
</g>
<g>
</g>
<g>
</g>
<g>
</g>
</svg>
