<?xml version="1.0" encoding="iso-8859-1"?>
<!-- Generator: Adobe Illustrator 19.0.0, SVG Export Plug-In . SVG Version: 6.00 Build 0)  -->
<svg xmlns="http://www.w3.org/2000/svg" xmlns:xlink="http://www.w3.org/1999/xlink" version="1.1" id="Layer_1" x="0px" y="0px" viewBox="0 0 512.002 512.002" style="enable-background:new 0 0 512.002 512.002;" xml:space="preserve" width="512px" height="512px">
<g>
	<g>
		<path d="M473.73,217.73h-3.655v-69.896c0-4.466-3.619-8.084-8.084-8.084h-50.309c-4.466,0-8.084,3.618-8.084,8.084v155.23v61.104    v40.548h-34.141V286.188v-60.373V107.286h34.141v14.332c0,4.466,3.619,8.084,8.084,8.084c4.466,0,8.084-3.619,8.084-8.084V99.201    c0-4.466-3.619-8.084-8.084-8.084h-50.31c-4.466,0-8.084,3.619-8.084,8.084V217.73h-38.312H197.024h-38.312V99.201    c0-4.466-3.618-8.084-8.084-8.084h-50.31c-4.466,0-8.084,3.619-8.084,8.084v40.548H50.009c-4.466,0-8.084,3.618-8.084,8.084    v69.896H38.27C17.168,217.73,0,234.899,0,256.001s17.168,38.271,38.27,38.271h3.655v69.896c0,4.466,3.619,8.084,8.084,8.084h50.31    c4.466,0,8.084-3.619,8.084-8.084v-21.94V147.834v-40.548h34.141v118.529v60.373v118.529h-34.141v-13.984    c0-4.466-3.619-8.084-8.084-8.084c-4.466,0-8.084,3.619-8.084,8.084v22.068c0,4.466,3.619,8.084,8.084,8.084h50.31    c4.466,0,8.084-3.618,8.084-8.084V294.272h38.312h117.952h38.312v118.529c0,4.466,3.618,8.084,8.084,8.084h50.31    c4.466,0,8.084-3.618,8.084-8.084v-40.548h42.226c4.466,0,8.084-3.618,8.084-8.084v-69.896h3.655    c21.102,0,38.27-17.169,38.27-38.271C512,234.899,494.832,217.73,473.73,217.73z M41.925,278.103H38.27    c-12.187,0-22.101-9.915-22.101-22.102s9.914-22.102,22.101-22.102h3.655V278.103z M92.235,342.228v13.856h-0.001h-34.14v-69.896    v-60.373v-69.896h34.141V342.228z M188.94,278.103h-30.228v-44.205h30.228V278.103z M306.892,278.103H205.108v-44.205h101.784    V278.103z M353.288,278.103H323.06v-44.205h30.227V278.103z M453.908,225.815v60.373v69.896h-34.141v-53.02V155.918h34.141    V225.815z M473.73,278.103h-3.655v-44.205h3.655c12.187,0,22.101,9.914,22.101,22.102S485.917,278.103,473.73,278.103z" fill="#171717"/>
	</g>
</g>
<g>
</g>
<g>
</g>
<g>
</g>
<g>
</g>
<g>
</g>
<g>
</g>
<g>
</g>
<g>
</g>
<g>
</g>
<g>
</g>
<g>
</g>
<g>
</g>
<g>
</g>
<g>
</g>
<g>
</g>
</svg>
