<?xml version="1.0" encoding="iso-8859-1"?>
<!-- Generator: Adobe Illustrator 19.0.0, SVG Export Plug-In . SVG Version: 6.00 Build 0)  -->
<svg xmlns="http://www.w3.org/2000/svg" xmlns:xlink="http://www.w3.org/1999/xlink" version="1.1" id="Layer_1" x="0px" y="0px" viewBox="0 0 511.999 511.999" style="enable-background:new 0 0 511.999 511.999;" xml:space="preserve" width="512px" height="512px">
<g>
	<g>
		<path d="M390.967,333.952c-1.53-1.64-3.672-2.572-5.914-2.572h-67.001V314.03c0-1.483-0.409-2.938-1.179-4.204l-11.102-18.235    v-73.437l11.017-17.308c0.826-1.298,1.264-2.804,1.264-4.341v-36.399c0-36.349-32.227-70.22-60.584-92.984v-9.73h3.448    c4.466,0,8.085-3.619,8.085-8.085V22.085C269.001,9.907,259.093,0,246.916,0h-56.917c-12.175,0-22.082,9.907-22.082,22.085v27.221    c0,4.466,3.619,8.085,8.085,8.085h2.438v10.545c-27.89,22.591-59.574,56.183-59.574,92.169v36.399c0,1.538,0.439,3.043,1.264,4.34    l11.015,17.309v73.437l-11.1,18.236c-0.772,1.267-1.179,2.72-1.179,4.203v169.583c-0.053,2.005,0.055,12.545,7.585,20.41    c3.483,3.639,9.898,7.976,20.673,7.976h136.332h0.022h90.029c4.245,0,7.768-3.284,8.064-7.519l11.546-164.451    C393.275,337.794,392.495,335.592,390.967,333.952z M184.086,22.085h0.001c0-3.261,2.652-5.915,5.912-5.915h56.917    c3.261,0,5.914,2.654,5.914,5.915v19.136h-3.448h-62.857h-2.438V22.085z M191.536,78.168c1.941-1.533,3.074-3.871,3.074-6.345    V57.391h46.687v13.638c0,2.487,1.144,4.834,3.101,6.366c5.289,4.139,11.459,9.271,17.757,15.139h-9.181h-78.198    C180.723,86.987,186.534,82.119,191.536,78.168z M135.037,160.105c0-17.963,10.839-36.023,24.093-51.402h93.843h24.829    c13.285,15.41,24.078,33.444,24.078,51.402v34.044l-8.634,13.564H143.668l-8.631-13.564V160.105z M289.6,223.885v61.89H147.316    v-61.89H289.6z M147.124,495.83c-4.085,0-7.006-0.957-8.932-2.926c-2.693-2.754-3.194-7.352-3.163-8.81    c0.005-0.116,0.008-0.235,0.008-0.351V316.299l8.737-14.355h149.367l8.739,14.355v15.081h-29.971    c-2.242,0-4.384,0.931-5.914,2.572c-1.529,1.64-2.308,3.842-2.151,6.08l10.938,155.799H147.124z M374.512,374.162h-9.427    c-4.466,0-8.085,3.619-8.085,8.085s3.619,8.085,8.085,8.085h8.292l-7.408,105.499h-74.975l-7.408-105.499h55.273    c4.466,0,8.085-3.619,8.085-8.085s-3.619-8.085-8.085-8.085h-56.408l-1.868-26.612h29.384h66.414L374.512,374.162z" fill="#171717"/>
	</g>
</g>
<g>
</g>
<g>
</g>
<g>
</g>
<g>
</g>
<g>
</g>
<g>
</g>
<g>
</g>
<g>
</g>
<g>
</g>
<g>
</g>
<g>
</g>
<g>
</g>
<g>
</g>
<g>
</g>
<g>
</g>
</svg>
