<?xml version="1.0" encoding="iso-8859-1"?>
<!-- Generator: Adobe Illustrator 19.0.0, SVG Export Plug-In . SVG Version: 6.00 Build 0)  -->
<svg xmlns="http://www.w3.org/2000/svg" xmlns:xlink="http://www.w3.org/1999/xlink" version="1.1" id="Layer_1" x="0px" y="0px" viewBox="0 0 511.997 511.997" style="enable-background:new 0 0 511.997 511.997;" xml:space="preserve" width="512px" height="512px">
<g>
	<g>
		<g>
			<path d="M410.669,170.64h-21.328v-21.328c0-21.352-15.688-39.039-36.156-42.18l-6.5-32.468V21.328     c0,0-24.203-21.328-106.686-21.328c-82.468,0-106.671,21.328-106.671,21.328v53.336l-6.516,32.468     c-20.469,3.133-36.156,20.82-36.156,42.18v213.341c0,21.344,15.687,39.031,36.156,42.172l6.516,32.5v53.328     c0,0,24.187,21.344,106.671,21.344c82.467,0,106.67-21.344,106.67-21.344v-53.328l6.516-32.5     c20.469-3.141,36.156-20.828,36.156-42.172v-21.344c5.891,0,10.656-4.764,10.656-10.654v-53.344     c0-5.891-4.766-10.664-10.656-10.664v-21.336h21.328c5.891,0,10.672-4.773,10.672-10.664v-53.335     C421.341,175.421,416.56,170.64,410.669,170.64z M154.249,78.867l0.422-2.078v-2.125V33.797     c2.969-1.258,6.875-2.695,11.844-4.125c13.188-3.805,36.64-8.344,73.484-8.344c36.859,0,60.311,4.539,73.498,8.344     c4.969,1.43,8.859,2.867,11.844,4.125v40.867v2.117l0.422,2.07l5.547,27.757H148.687L154.249,78.867z M325.747,433.121     l-0.422,2.078v2.125v40.859c-2.969,1.266-6.875,2.703-11.844,4.125c-13.188,3.812-36.639,8.344-73.482,8.344     c-36.859,0-60.312-4.531-73.5-8.344c-4.969-1.422-8.859-2.859-11.844-4.125v-40.859v-2.109l-0.406-2.078l-5.562-27.766H331.31     L325.747,433.121z M367.997,362.652L367.997,362.652c0,11.766-9.562,21.344-21.328,21.344H133.328     c-11.766,0-21.344-9.578-21.344-21.344V149.311c0-11.766,9.578-21.336,21.344-21.336h213.341c11.766,0,21.328,9.57,21.328,21.336     V362.652z M399.997,223.982h-10.656v-32.007h10.656V223.982z" fill="#171717"/>
			<path d="M176.218,233.389c1.594,0.867,3.344,1.297,5.109,1.297c1.75,0,3.516-0.43,5.109-1.297     c4.391-2.398,42.921-24.234,42.921-53.015c0-17.117-14.562-31.039-32.469-31.039c-5.531,0-10.843,1.312-15.562,3.789     c-4.719-2.477-10.047-3.789-15.578-3.789c-17.891,0-32.453,13.922-32.453,31.039C133.297,209.154,171.828,230.99,176.218,233.389     z M165.749,170.671c3.156,0,6.078,1.125,8.219,3.172c4.109,3.93,10.594,3.93,14.719-0.008c2.141-2.039,5.062-3.164,8.203-3.164     c6.141,0,11.125,4.352,11.125,9.703c0,10.883-15.671,24.062-26.703,31.218c-11.031-7.125-26.688-20.272-26.688-31.218     C154.624,175.022,159.624,170.671,165.749,170.671z" fill="#171717"/>
			<path d="M261.296,181.335h74.482c5.891,0,10.672-4.773,10.672-10.664c0-5.891-4.781-10.664-10.672-10.664h-74.482     c-5.891,0-10.657,4.773-10.657,10.664C250.639,176.562,255.405,181.335,261.296,181.335z" fill="#171717"/>
			<path d="M261.296,224.006h42.67c5.891,0,10.672-4.773,10.672-10.664s-4.781-10.672-10.672-10.672h-42.67     c-5.891,0-10.657,4.781-10.657,10.672S255.405,224.006,261.296,224.006z" fill="#171717"/>
			<path d="M335.966,298.654h-74.623H143.969c-5.891,0-10.672,4.781-10.672,10.656v42.67c0,5.891,4.781,10.672,10.672,10.672     h191.997c5.891,0,10.672-4.781,10.672-10.672v-42.67C346.638,303.436,341.856,298.654,335.966,298.654z M214.248,341.308h-59.625     v-21.326h0.001h80.968L214.248,341.308z M244.421,341.309l21.344-21.326h59.545v21.326H244.421z" fill="#171717"/>
			<path d="M147.093,259.107c-4.171,4.164-4.171,10.914,0,15.078c4.156,4.172,10.906,4.172,15.078,0     c4.172-4.164,4.172-10.914,0-15.078C157.999,254.936,151.249,254.936,147.093,259.107z" fill="#171717"/>
			<path d="M189.749,259.107c-4.156,4.164-4.156,10.914,0,15.078c4.171,4.172,10.921,4.172,15.093,0     c4.156-4.164,4.156-10.914,0-15.078C200.671,254.936,193.921,254.936,189.749,259.107z" fill="#171717"/>
			<path d="M232.421,274.186c4.172,4.172,10.921,4.172,15.093,0c4.156-4.164,4.156-10.914,0-15.078     c-4.172-4.172-10.921-4.172-15.093,0C228.265,263.271,228.265,270.021,232.421,274.186z" fill="#171717"/>
			<path d="M275.093,259.107c-4.172,4.164-4.172,10.914,0,15.078c4.172,4.172,10.922,4.172,15.076,0     c4.172-4.164,4.172-10.914,0-15.078C286.015,254.936,279.265,254.936,275.093,259.107z" fill="#171717"/>
			<path d="M317.763,259.107c-4.172,4.164-4.172,10.914,0,15.078c4.156,4.172,10.922,4.172,15.078,0     c4.172-4.164,4.172-10.914,0-15.078C328.685,254.936,321.919,254.936,317.763,259.107z" fill="#171717"/>
		</g>
	</g>
</g>
<g>
</g>
<g>
</g>
<g>
</g>
<g>
</g>
<g>
</g>
<g>
</g>
<g>
</g>
<g>
</g>
<g>
</g>
<g>
</g>
<g>
</g>
<g>
</g>
<g>
</g>
<g>
</g>
<g>
</g>
</svg>
