<?xml version="1.0" encoding="iso-8859-1"?>
<!-- Generator: Adobe Illustrator 19.0.0, SVG Export Plug-In . SVG Version: 6.00 Build 0)  -->
<svg xmlns="http://www.w3.org/2000/svg" xmlns:xlink="http://www.w3.org/1999/xlink" version="1.1" id="Layer_1" x="0px" y="0px" viewBox="0 0 512 512" style="enable-background:new 0 0 512 512;" xml:space="preserve" width="512px" height="512px">
<g>
	<g>
		<g>
			<path d="M411.63,0h-0.354H100.724h-0.354c-4.466,0-8.084,3.619-8.084,8.084v0.227v170.664c0,1.453,0.391,2.88,1.134,4.128     l68.672,115.598c0.55,0.925,1.268,1.714,2.102,2.339c-2.062,3.854-3.236,8.25-3.236,12.918v4.177     c0,15.148,12.324,27.47,27.469,27.47h15.788c-23.839,16.486-39.497,44.001-39.497,75.115C164.717,471.052,205.667,512,256,512     c50.331,0,91.28-40.947,91.28-91.279c0-10.412-1.74-20.628-5.172-30.359c-1.485-4.211-6.103-6.421-10.312-4.936     c-4.21,1.485-6.42,6.102-4.936,10.312c2.821,8,4.251,16.406,4.251,24.982c0,41.416-33.695,75.111-75.112,75.111     c-41.418,0-75.114-33.695-75.114-75.111c0-41.418,33.696-75.115,75.114-75.115c22.883,0,44.236,10.243,58.587,28.103     c2.798,3.481,7.883,4.034,11.366,1.237c3.481-2.797,4.035-7.885,1.237-11.366c-5.617-6.989-12.12-13.012-19.28-17.975h15.404     c15.148,0,27.471-12.324,27.471-27.47v-4.177c0-4.616-1.15-8.967-3.17-12.789c0.915-0.646,1.707-1.474,2.297-2.467     l68.667-115.598c0.742-1.249,1.134-2.675,1.134-4.128V8.312V8.084C419.714,3.619,416.094,0,411.63,0z M396.758,16.168     l-21.393,34.535c-0.362-0.05-0.73-0.084-1.106-0.084H136.535l-21.306-34.451H396.758z M167.84,101.24l-21.307-34.453h218.868     L344.06,101.24H167.84z M334.045,117.409l-78.169,126.19l-78.039-126.19H334.045z M108.455,35.954l0.255,0.413l137.653,222.588     l-17.056,27.534h-1.25c-0.067-0.121-0.126-0.244-0.199-0.363L108.865,93.224c-0.128-0.208-0.267-0.404-0.411-0.596V35.954z      M108.455,176.755v-53.401l100.63,163.135h-20.658h-14.784L108.455,176.755z M334.617,318.136c0,6.231-5.07,11.302-11.303,11.302     H188.428c-6.231,0-11.301-5.07-11.301-11.302v-4.177c0-6.231,5.069-11.301,11.301-11.301h45.382h89.505     c6.232,0,11.303,5.069,11.303,11.301V318.136z M403.544,176.755l-65.184,109.734h-15.047H301.54l102.004-165.364V176.755z      M403.545,91.2c-0.686,0.557-1.296,1.23-1.785,2.024L282.768,286.126c-0.073,0.12-0.133,0.242-0.199,0.363h-34.243     L403.545,35.915V91.2z" fill="#171717"/>
			<path d="M255.87,367.362c-29.42,0-53.356,23.936-53.356,53.356c0,29.422,23.936,53.358,53.356,53.358     s53.356-23.936,53.356-53.358C309.225,391.298,285.29,367.362,255.87,367.362z M255.87,457.907     c-20.505,0-37.187-16.684-37.187-37.19c0-20.505,16.683-37.187,37.187-37.187s37.187,16.683,37.187,37.187     C293.057,441.224,276.374,457.907,255.87,457.907z" fill="#171717"/>
		</g>
	</g>
</g>
<g>
</g>
<g>
</g>
<g>
</g>
<g>
</g>
<g>
</g>
<g>
</g>
<g>
</g>
<g>
</g>
<g>
</g>
<g>
</g>
<g>
</g>
<g>
</g>
<g>
</g>
<g>
</g>
<g>
</g>
</svg>
