<?xml version="1.0" encoding="iso-8859-1"?>
<!-- Generator: Adobe Illustrator 18.0.0, SVG Export Plug-In . SVG Version: 6.00 Build 0)  -->
<!DOCTYPE svg PUBLIC "-//W3C//DTD SVG 1.1//EN" "http://www.w3.org/Graphics/SVG/1.1/DTD/svg11.dtd">
<svg xmlns="http://www.w3.org/2000/svg" xmlns:xlink="http://www.w3.org/1999/xlink" version="1.1" id="Capa_1" x="0px" y="0px" viewBox="0 0 459.527 459.527" style="enable-background:new 0 0 459.527 459.527;" xml:space="preserve" width="512px" height="512px">
<g>
	<path d="M284.958,120.948c-5.522,0-10,4.477-10,10v90.525c0,5.523,4.478,10,10,10s10-4.477,10-10v-90.525   C294.958,125.425,290.481,120.948,284.958,120.948z" fill="#171717"/>
	<path d="M284.958,67.831c5.522,0,10-4.477,10-10V42.164c0-5.523-4.478-10-10-10s-10,4.477-10,10v15.667   C274.958,63.354,279.436,67.831,284.958,67.831z" fill="#171717"/>
	<path d="M228.959,421.627c22.036,0,39.964-17.928,39.964-39.964c0-22.036-17.928-39.964-39.964-39.964   s-39.964,17.928-39.964,39.964C188.996,403.699,206.923,421.627,228.959,421.627z M248.923,381.663   c0,7.363-4.017,13.791-9.964,17.252v-34.504C244.906,367.872,248.923,374.3,248.923,381.663z M218.959,364.411v34.504   c-5.947-3.461-9.964-9.889-9.964-17.252S213.012,367.872,218.959,364.411z" fill="#171717"/>
	<path d="M339.288,41.671H327.16V10c0-5.523-4.478-10-10-10H102.417c-4.044,0-7.691,2.437-9.239,6.173   c-1.548,3.737-0.692,8.038,2.167,10.898l35.415,35.416v154.332c0,34.121,22.095,63.159,52.721,73.615v23.365h-2.777   c-23.835,0-43.227,19.391-43.227,43.227v102.502c0,5.523,4.477,10,10,10h162.964c5.522,0,10-4.477,10-10V347.025   c0-23.835-19.392-43.227-43.227-43.227h-2.767v-23.369c29.027-9.914,50.368-36.526,52.512-68.334   c25.23-18.974,40.15-48.667,40.15-80.446V69.495C367.111,54.153,354.629,41.671,339.288,41.671z M126.559,20H307.16v76.944   c-6.311-1.326-12.135-4.446-16.801-9.111c-9.889-9.89-23.038-15.336-37.027-15.336c-13.988,0-27.138,5.447-37.027,15.336   c-6.112,6.112-14.239,9.479-22.885,9.479s-16.773-3.366-22.885-9.479c-5.538-5.538-12.351-9.337-19.775-11.137V48.344   c0-2.652-1.054-5.196-2.929-7.071L126.559,20z M300.442,347.025v92.502H157.477v-92.502c0-12.807,10.419-23.227,23.227-23.227   h96.511C290.023,323.798,300.442,334.218,300.442,347.025z M254.449,303.798h-50.968v-19.382c1.675,0.108,3.358,0.183,5.06,0.183   h40.839c1.705,0,3.392-0.075,5.069-0.183V303.798z M249.379,264.599H208.54c-31.86,0-57.78-25.92-57.78-57.78V97.898   c2.053,1.044,3.957,2.401,5.632,4.076c9.89,9.89,23.04,15.336,37.027,15.336s27.137-5.446,37.028-15.336   c6.111-6.112,14.238-9.478,22.884-9.478c8.646,0,16.773,3.366,22.885,9.479c8.464,8.463,19.264,13.732,30.943,15.236v89.607   C307.16,238.679,281.24,264.599,249.379,264.599z M347.111,131.649c0,19.802-7.232,38.591-19.951,53.121V61.671h12.128   c4.313,0,7.823,3.51,7.823,7.824V131.649z" fill="#171717"/>
</g>
<g>
</g>
<g>
</g>
<g>
</g>
<g>
</g>
<g>
</g>
<g>
</g>
<g>
</g>
<g>
</g>
<g>
</g>
<g>
</g>
<g>
</g>
<g>
</g>
<g>
</g>
<g>
</g>
<g>
</g>
</svg>
