<?xml version="1.0" encoding="iso-8859-1"?>
<!-- Generator: Adobe Illustrator 19.0.0, SVG Export Plug-In . SVG Version: 6.00 Build 0)  -->
<svg xmlns="http://www.w3.org/2000/svg" xmlns:xlink="http://www.w3.org/1999/xlink" version="1.1" id="Layer_1" x="0px" y="0px" viewBox="0 0 511.994 511.994" style="enable-background:new 0 0 511.994 511.994;" xml:space="preserve" width="512px" height="512px">
<g>
	<g>
		<path d="M501.322,341.339h-31.999v-10.686c0-17.625-14.359-32-32-32c-3.733,0-7.327,0.656-10.671,1.844v-1.844    c0-17.625-14.359-31.992-32-31.992s-32,14.367-32,31.992v42.686h-55.953c8.672-19.873,13.297-41.576,13.297-63.998    c0-42.75-16.656-82.93-46.874-113.147c-5.406-5.407-11.125-10.368-17.125-14.891V63.999c0-17.648-14.359-32-31.999-32H95.999    c-17.656,0-32,14.352-32,32v85.304c-6.016,4.523-11.734,9.484-17.14,14.891C16.641,194.411,0,234.591,0,277.341    c0,49.312,22.234,95.123,61.015,125.701c1.875,1.484,4.203,2.297,6.609,2.297h49.703h31.999v10.656c0,17.641,14.359,32,32,32    c3.734,0,7.328-0.656,10.672-1.844v1.844c0,17.656,14.344,32,32,32c17.64,0,31.999-14.344,31.999-32v-42.656h106.655v42.656    c0,17.656,14.359,32,32,32s32-14.344,32-32v-1.844c3.344,1.188,6.938,1.844,10.671,1.844c17.641,0,32-14.359,32-32v-10.656h31.999    c5.891,0,10.672-4.781,10.672-10.688v-42.656C511.994,346.104,507.213,341.339,501.322,341.339z M85.327,63.999    c0-5.883,4.781-10.664,10.672-10.664h127.999c5.875,0,10.656,4.781,10.656,10.664v71.741c-3.484-1.844-7.047-3.000-10.656-5.133    V85.335c0-11.766-9.578-21.336-21.344-21.336h-85.327c-11.766,0-21.328,9.57-21.328,21.336v45.272    c-3.625,1.578-7.188,3.289-10.672,5.133V63.999z M202.654,85.335v37.718h0c-13.719-3.773-28.047-5.719-42.656-5.719    c-14.625,0-28.952,1.945-42.671,5.719V85.335H202.654z M149.326,383.995h-21.327c2.719,0,5.453-1.031,7.531-3.125    c4.172-4.156,4.172-10.922,0-15.094c-2.078-2.062-4.797-3.109-7.516-3.125h21.312V383.995z M191.998,415.995    c0,5.875-4.797,10.656-10.672,10.656c-5.891,0-10.672-4.781-10.672-10.656v-85.342c0-5.875,4.781-10.656,10.672-10.656    c5.875,0,10.672,4.781,10.672,10.656V415.995z M234.654,447.995c0,5.875-4.781,10.656-10.656,10.656    c-5.891,0-10.672-4.781-10.672-10.656v-32v-85.342v-32c0-5.875,4.781-10.656,10.672-10.656c5.875,0,10.656,4.781,10.656,10.656    V447.995z M223.998,266.661c-17.656,0-32,14.367-32,31.992v1.844c-3.344-1.188-6.938-1.844-10.672-1.844    c-17.641,0-32,14.375-32,32v10.686h-31.999c-5.891,0-10.672,4.766-10.672,10.656v32H71.39    c-31.859-26.469-50.062-65.123-50.062-106.654c0-76.469,62.202-138.679,138.67-138.679c76.453,0,138.654,62.21,138.654,138.679    c0,22.688-5.438,44.531-15.577,63.998h-27.078v-42.686C255.997,281.028,241.638,266.661,223.998,266.661z M362.652,383.995    H255.997v-21.344h106.655V383.995z M405.324,330.653v85.342v32c0,5.875-4.781,10.656-10.672,10.656    c-5.875,0-10.656-4.781-10.656-10.656V298.653c0-5.875,4.781-10.656,10.656-10.656c5.891,0,10.672,4.781,10.672,10.656V330.653z     M447.995,415.995c0,5.875-4.797,10.656-10.672,10.656c-5.89,0-10.671-4.781-10.671-10.656v-85.342    c0-5.875,4.781-10.656,10.671-10.656c5.875,0,10.672,4.781,10.672,10.656V415.995z M469.323,383.995v-21.344h21.312    c-2.719,0.016-5.453,1.062-7.531,3.125c-4.155,4.172-4.155,10.938,0,15.094c2.094,2.094,4.812,3.125,7.547,3.125H469.323z" fill="#171717"/>
	</g>
</g>
<g>
</g>
<g>
</g>
<g>
</g>
<g>
</g>
<g>
</g>
<g>
</g>
<g>
</g>
<g>
</g>
<g>
</g>
<g>
</g>
<g>
</g>
<g>
</g>
<g>
</g>
<g>
</g>
<g>
</g>
</svg>
