<?xml version="1.0" encoding="iso-8859-1"?>
<!-- Generator: Adobe Illustrator 19.0.0, SVG Export Plug-In . SVG Version: 6.00 Build 0)  -->
<svg xmlns="http://www.w3.org/2000/svg" xmlns:xlink="http://www.w3.org/1999/xlink" version="1.1" id="Layer_1" x="0px" y="0px" viewBox="0 0 512 512" style="enable-background:new 0 0 512 512;" xml:space="preserve" width="512px" height="512px">
<g>
	<g>
		<path d="M435.2,76.8H384c0-14.14-11.46-25.6-25.6-25.6h-25.6V25.6c0-14.14-11.46-25.6-25.6-25.6H204.8    c-14.14,0-25.6,11.46-25.6,25.6v25.6h-25.6c-14.14,0-25.6,11.46-25.6,25.6H76.8c-14.14,0-25.6,11.46-25.6,25.6v384    c0,14.14,11.46,25.6,25.6,25.6h358.4c14.14,0,25.6-11.46,25.6-25.6v-384C460.8,88.26,449.34,76.8,435.2,76.8z M153.6,76.8h51.2    V25.6h102.4v51.2h51.2v25.6H153.6V76.8z M435.2,486.4H76.8v-384H128c0,14.14,11.46,25.6,25.6,25.6h204.8    c14.14,0,25.6-11.46,25.6-25.6h51.2V486.4z" fill="#171717"/>
	</g>
</g>
<g>
	<g>
		<path d="M396.8,307.191h-41.975l-22.673-68.062c-1.775-5.325-6.929-9.523-12.425-8.747c-5.623,0.128-10.496,3.874-12.023,9.276    l-37.35,130.705L230.101,189.21c-1.229-5.478-5.871-9.523-11.477-9.975c-5.572-0.375-10.829,2.773-12.902,8.004l-48,119.953H115.2    c-7.074,0-12.8,5.726-12.8,12.8c0,7.074,5.726,12.8,12.8,12.8h51.2c5.222,0,9.95-3.174,11.878-8.047l35.823-89.523l42.197,189.952    c1.271,5.726,6.272,9.847,12.126,10.027c0.128,0,0.247,0,0.375,0c5.7,0,10.726-3.772,12.297-9.276l39.851-139.426l12.501,37.547    c1.749,5.222,6.647,8.747,12.151,8.747h51.2c7.074,0,12.8-5.726,12.8-12.8S403.874,307.191,396.8,307.191z" fill="#171717"/>
	</g>
</g>
<g>
</g>
<g>
</g>
<g>
</g>
<g>
</g>
<g>
</g>
<g>
</g>
<g>
</g>
<g>
</g>
<g>
</g>
<g>
</g>
<g>
</g>
<g>
</g>
<g>
</g>
<g>
</g>
<g>
</g>
</svg>
