<?xml version="1.0" encoding="iso-8859-1"?>
<!-- Generator: Adobe Illustrator 19.0.0, SVG Export Plug-In . SVG Version: 6.00 Build 0)  -->
<svg xmlns="http://www.w3.org/2000/svg" xmlns:xlink="http://www.w3.org/1999/xlink" version="1.1" id="Layer_1" x="0px" y="0px" viewBox="0 0 512 512" style="enable-background:new 0 0 512 512;" xml:space="preserve" width="512px" height="512px">
<g>
	<g>
		<g>
			<path d="M119.954,65.185c55.401,0,71.332,38.851,74.94,71.442c0.458,4.136,3.958,7.196,8.025,7.196     c0.296,0,0.597-0.017,0.899-0.051c4.438-0.49,7.637-4.486,7.145-8.924c-1.657-14.972-6.478-36.539-20.031-54.263     c-16.015-20.948-39.897-31.568-70.979-31.568c-4.466,0-8.084,3.619-8.084,8.084C111.869,61.565,115.489,65.185,119.954,65.185z" fill="#171717"/>
			<path d="M232.883,124.078c6.851,2.023,14.095,3.049,21.528,3.049h0.002c20.266,0,40.57-7.564,57.169-21.296     c22.797-18.855,35.323-47.162,32.684-73.877c-0.323-3.275-2.6-6.027-5.756-6.959c-6.853-2.023-14.097-3.049-21.53-3.049     c-20.264,0-40.568,7.563-57.166,21.292c-22.798,18.851-35.324,47.161-32.687,73.88     C227.451,120.392,229.726,123.145,232.883,124.078z M270.119,55.698c13.709-11.338,30.35-17.584,46.863-17.584     c3.917,0,7.755,0.357,11.468,1.063c-0.017,19.74-10.093,40.072-27.172,54.194c-13.71,11.341-30.352,17.586-46.866,17.586     c-3.918,0-7.754-0.357-11.467-1.062C242.963,90.153,253.041,69.818,270.119,55.698z" fill="#171717"/>
			<path d="M503.916,276.659h-96.779v-40.301c0-4.465-3.619-8.084-8.084-8.084h-8.443c-4.642-19.42-12.658-37.036-23.894-52.435     c-2.237-3.307-28.902-41.315-72.556-41.315c-9.442,0-19.043,1.826-28.538,5.426c-38.537,14.614-54.167,16.192-59.099,16.193     c-0.439,0-0.76-0.015-0.974-0.028c-1.781-0.773-2.175-0.773-3.958,0c-0.215,0.014-0.536,0.028-0.977,0.028     c-4.93,0-20.559-1.578-59.099-16.193c-9.495-3.6-19.096-5.426-28.538-5.426c-43.66,0-70.32,38.009-72.556,41.316     c-11.237,15.399-19.251,33.015-23.894,52.435H8.084c-4.466,0-8.084,3.62-8.084,8.084v96.77c0,4.466,3.619,8.084,8.084,8.084     h13.81c12.314,44.951,33.541,85.154,49.795,108.364c39.908,56.99,80.84,39.239,92.435,32.438     c8.594-5.041,26.888-8.091,33.805-8.921h11.279c6.91,0.826,25.183,3.864,33.805,8.922c5.068,2.973,15.74,8.039,29.486,8.038     c17.697-0.001,40.486-8.4,62.947-40.477c10.094-14.416,22.111-35.386,32.718-59.981h76.537c4.466,0,8.084-3.619,8.084-8.084     s-3.618-8.084-8.084-8.084h-69.98c0.146-0.383,0.276-0.765,0.419-1.148c0.764-2.037,1.518-4.09,2.254-6.161     c0.191-0.536,0.379-1.071,0.567-1.607c0.757-2.16,1.497-4.339,2.219-6.533c0.107-0.324,0.218-0.649,0.323-0.973     c0.764-2.342,1.501-4.707,2.221-7.083c0.107-0.352,0.217-0.706,0.322-1.058c0.691-2.309,1.357-4.634,2.002-6.971     c0.063-0.226,0.134-0.455,0.195-0.681h13.805c4.466,0,8.084-3.618,8.084-8.084v-40.301h17.04v33.523     c0,4.466,3.618,8.084,8.084,8.084c4.466,0,8.084-3.619,8.084-8.084v-33.523h19.91v19.059c0,4.466,3.618,8.084,8.084,8.084     c4.466,0,8.084-3.619,8.084-8.084v-19.059h19.411v80.601h-25.985c-4.466,0-8.084,3.618-8.084,8.084     c0,4.466,3.618,8.084,8.084,8.084h34.069c4.466,0,8.084-3.618,8.084-8.084v-96.769C512,280.277,508.382,276.659,503.916,276.659z      M53.569,185.249c0.073-0.101,0.146-0.204,0.215-0.308c0.226-0.342,23.106-34.249,59.193-34.249     c7.476,0,15.15,1.472,22.805,4.376c39.564,15.003,57.601,17.243,64.831,17.243c1.187,0,2.161-0.058,2.955-0.143     c0.793,0.085,1.77,0.143,2.956,0.143c7.232-0.001,25.27-2.241,64.831-17.243c7.656-2.903,15.33-4.376,22.805-4.376     c35.871,0,58.974,33.922,59.194,34.25c0.068,0.105,0.14,0.206,0.213,0.307c9.285,12.692,16.118,27.13,20.377,43.024H33.193     C37.451,212.379,44.284,197.942,53.569,185.249z M390.971,284.743v40.301h-0.002h-11.95h-20.553h-25.141     c-4.466,0-8.084,3.618-8.084,8.084c0,4.466,3.618,8.084,8.084,8.084h25.141h9.976c-0.112,0.389-0.217,0.776-0.331,1.165     c-0.1,0.343-0.202,0.684-0.303,1.026c-1.078,3.636-2.226,7.284-3.447,10.944c-0.065,0.193-0.128,0.385-0.193,0.578     c-2.621,7.807-5.564,15.654-8.814,23.488c-0.012,0.029-0.019,0.059-0.03,0.089c-10.569,25.463-22.884,47.184-33.118,61.799     c-31.101,44.409-60.02,34.211-71.01,27.767c-13.312-7.808-37.848-10.779-40.603-11.093c-0.303-0.034-0.607-0.052-0.913-0.052     h-12.221c-0.305,0-0.609,0.017-0.914,0.052c-2.754,0.314-27.288,3.284-40.599,11.092c-10.989,6.446-39.91,16.642-71.011-27.766     c-14.956-21.358-34.357-57.883-46.252-99.091h168.886h98.088c4.466,0,8.084-3.618,8.084-8.084c0-4.466-3.618-8.084-8.084-8.084     h-98.088H28.116H16.168v-80.602h6.859h8.747V276c0,4.465,3.619,8.084,8.084,8.084s8.084-3.62,8.084-8.084v-31.559h19.91v17.095     c0,4.466,3.618,8.084,8.084,8.084c4.466,0,8.084-3.618,8.084-8.084v-17.095h19.908V276c0,4.465,3.618,8.084,8.084,8.084     c4.466,0,8.084-3.62,8.084-8.084v-31.559h19.91v17.095c0,4.466,3.618,8.084,8.084,8.084c4.466,0,8.084-3.618,8.084-8.084v-17.095     h19.91V276c0,4.465,3.618,8.084,8.084,8.084c4.466,0,8.084-3.62,8.084-8.084v-31.559h19.908v17.095     c0,4.466,3.618,8.084,8.084,8.084c4.466,0,8.084-3.618,8.084-8.084v-17.095h19.91V276c0,4.465,3.618,8.084,8.084,8.084     c4.466,0,8.084-3.62,8.084-8.084v-31.559h19.91v17.095c0,4.466,3.619,8.084,8.084,8.084s8.084-3.618,8.084-8.084v-17.095h19.905     V276c0,4.465,3.619,8.084,8.084,8.084s8.084-3.62,8.084-8.084v-31.559h19.91v17.095c0,4.466,3.618,8.084,8.084,8.084     c4.466,0,8.084-3.618,8.084-8.084v-17.095h11.474h6.859V284.743z" fill="#171717"/>
		</g>
	</g>
</g>
<g>
</g>
<g>
</g>
<g>
</g>
<g>
</g>
<g>
</g>
<g>
</g>
<g>
</g>
<g>
</g>
<g>
</g>
<g>
</g>
<g>
</g>
<g>
</g>
<g>
</g>
<g>
</g>
<g>
</g>
</svg>
