<?xml version="1.0" encoding="iso-8859-1"?>
<!-- Generator: Adobe Illustrator 19.0.0, SVG Export Plug-In . SVG Version: 6.00 Build 0)  -->
<svg xmlns="http://www.w3.org/2000/svg" xmlns:xlink="http://www.w3.org/1999/xlink" version="1.1" id="Layer_1" x="0px" y="0px" viewBox="0 0 511.998 511.998" style="enable-background:new 0 0 511.998 511.998;" xml:space="preserve" width="512px" height="512px">
<g>
	<g>
		<path d="M460.216,386.358l-1.812-0.531c-26.468-7.109-35.421-13.922-47.202-18.422c-41.797-15.922-52.672-27.406-55.453-32.811    c-0.109-0.203-0.188-0.406-0.281-0.609l-0.25-36.516c22.359-29.93,38.344-67.289,38.344-105.983c0-5.953-0.297-11.758-0.828-17.43    c7.672-4.25,12.594-13.375,12.594-24.727c0-7.453-2.031-14.758-5.484-20.938c0.656-8.875-0.922-21.336-8.172-38.046    c-16.75-38.625-60.562-39.477-64.406-39.477c-0.172,0-0.266,0-0.266,0s-2.672-23.773,25.812-40.891    C357.577,7.11,330.264,0,292.514,0c-57.639-0.007-139.607,16.586-168.841,90.203c-5.344,13.429-7.953,24.804-8.969,34.187    c-4.984,6.898-8.031,15.805-8.031,24.938c0,11.359,4.938,20.477,12.594,24.727c-0.531,5.672-0.812,11.477-0.812,17.43    c0,38.694,15.969,76.054,38.327,105.983l-0.25,36.516c-0.094,0.203-0.172,0.406-0.266,0.609    c-2.781,5.404-13.655,16.889-55.452,32.811c-11.797,4.5-20.75,11.312-47.219,18.422l-1.812,0.531    c-24.093,7.953-40.312,30.297-40.312,55.516v70.125h244.527h244.528v-70.125C500.527,416.655,484.309,394.312,460.216,386.358z     M96.657,490.655H32.814v-48.781c0-15.891,10.156-29.969,25.327-35.156l1.188-0.344c9.75-2.625,17.344-5.219,23.609-7.688    c1.984,3.594,4.359,8.781,6.578,15.844C97.063,438.562,97.782,467.687,96.657,490.655z M143.496,98.08    c5.737-14.452,14.269-27.054,25.378-37.468c10.062-9.438,22.484-17.344,36.922-23.492c30.656-13.047,64.077-15.789,86.717-15.789    c7.328,0,14,0.281,19.922,0.719c-1.375,2.703-2.453,5.266-3.297,7.609c-4.234,11.812-3.625,21.047-3.344,23.594l1.891,19.625    l19.656-0.672c0.938,0.008,9.812,0.172,19.828,3.906c12.094,4.508,20.25,11.938,24.938,22.726c2,4.602,3.422,8.672,4.422,12.242    c-3.938-0.828-8.141-1.281-12.297-1.281c-4.719,0-11.5,0.578-17,3.328c-1.047,0.516-3.141,1.07-5.906,1.07    c-2.75,0-4.844-0.000-5.891-1.07c-4.281-2.148-9.766-3.328-15.438-3.328c-5.656,0-11.141,1.18-15.438,3.328    c-1.031,0.516-3.125,1.07-5.891,1.07s-4.859-0.000-5.906-1.07c-4.28-2.148-9.765-3.328-15.437-3.328    c-5.656,0-11.141,1.18-15.422,3.328c-1.047,0.516-3.141,1.07-5.906,1.07s-4.859-0.000-5.891-1.07    c-4.297-2.148-9.78-3.328-15.437-3.328c-5.672,0-11.156,1.18-15.438,3.328c-1.047,0.516-3.141,1.07-5.891,1.07    c-2.766,0-4.859-0.000-5.906-1.07c-4.281-2.148-9.766-3.328-15.438-3.328c-5.656,0-11.141,1.18-15.438,3.328    c-1.031,0.516-3.125,1.07-5.891,1.07s-4.859-0.000-5.906-1.07c-5.484-2.75-12.281-3.328-17-3.328    c-2.844,0-5.718,0.219-8.515,0.617C140.34,106.619,141.73,102.51,143.496,98.08z M129.595,155.307    c-0.438-0.422-1.594-2.195-1.594-5.977c0-8.203,5.25-15.391,8.703-16.547c3.156-1.047,7.188-1.648,11.062-1.648    c4.203,0,6.719,0.703,7.469,1.07c4.281,2.148,9.766,3.328,15.438,3.328c5.656,0,11.141-1.18,15.438-3.328    c1.031-0.516,3.125-1.07,5.891-1.07c2.766,0,4.859,0.000,5.906,1.07c4.281,2.148,9.766,3.328,15.438,3.328    c5.656,0,11.141-1.18,15.422-3.328c1.047-0.516,3.141-1.07,5.906-1.07c2.765,0,4.859,0.000,5.891,1.07    c4.296,2.148,9.78,3.328,15.437,3.328c5.672,0,11.156-1.18,15.438-3.328c1.047-0.516,3.141-1.07,5.891-1.07    c2.766,0,4.859,0.000,5.906,1.07c4.281,2.148,9.765,3.328,15.437,3.328c5.656,0,11.141-1.18,15.438-3.328    c1.031-0.516,3.125-1.07,5.891-1.07s4.859,0.000,5.891,1.07c4.297,2.148,9.781,3.328,15.438,3.328    c5.672,0,11.156-1.18,15.438-3.328c0.75-0.367,3.266-1.07,7.469-1.07c3.875,0,7.906,0.602,11.062,1.648    c3.469,1.156,8.703,8.344,8.703,16.547c0,3.781-1.156,5.000-1.594,5.977c-0.078-0.008-0.203-0.039-0.359-0.094    c-5.328-1.773-11.641-2.75-17.812-2.75c-4.719,0-11.5,0.578-17,3.328c-1.047,0.516-3.141,1.07-5.906,1.07    c-2.75,0-4.844-0.000-5.891-1.07c-4.281-2.148-9.766-3.328-15.438-3.328c-5.656,0-11.141,1.18-15.438,3.328    c-1.031,0.516-3.125,1.07-5.891,1.07s-4.859-0.000-5.906-1.07c-4.28-2.148-9.765-3.328-15.437-3.328    c-5.656,0-11.141,1.18-15.438,3.328c-1.031,0.516-3.125,1.07-5.891,1.07s-4.859-0.000-5.891-1.07    c-4.297-2.148-9.78-3.328-15.437-3.328c-5.672,0-11.156,1.18-15.438,3.328c-1.047,0.516-3.141,1.07-5.906,1.07    c-2.75,0-4.844-0.000-5.891-1.07c-4.281-2.148-9.766-3.328-15.438-3.328c-5.656,0-11.141,1.18-15.438,3.328    c-1.031,0.516-3.125,1.07-5.891,1.07c-2.766,0-4.859-0.000-5.906-1.07c-5.484-2.75-12.281-3.328-17-3.328    c-6.172,0-12.485,0.976-17.797,2.75C129.798,155.268,129.673,155.299,129.595,155.307z M139.782,191.486    c0-5.797,0.297-11.477,0.875-17.031c2.266-0.422,4.718-0.656,7.108-0.656c4.203,0,6.719,0.703,7.469,1.07    c4.281,2.148,9.766,3.328,15.438,3.328c5.656,0,11.141-1.18,15.438-3.328c1.031-0.516,3.125-1.07,5.891-1.07    s4.859,0.000,5.906,1.07c4.281,2.148,9.766,3.328,15.422,3.328c5.672,0,11.156-1.18,15.438-3.328    c1.047-0.516,3.141-1.07,5.906-1.07c2.765,0,4.859,0.000,5.891,1.07c4.296,2.148,9.78,3.328,15.437,3.328    c5.672,0,11.156-1.18,15.438-3.328c1.047-0.516,3.141-1.07,5.891-1.07c2.766,0,4.859,0.000,5.906,1.07    c4.281,2.148,9.765,3.328,15.437,3.328c5.656,0,11.141-1.18,15.438-3.328c1.031-0.516,3.125-1.07,5.891-1.07    s4.859,0.000,5.891,1.07c4.297,2.148,9.781,3.328,15.438,3.328c5.672,0,11.156-1.18,15.438-3.328    c0.75-0.367,3.266-1.07,7.469-1.07c2.391,0,4.844,0.234,7.109,0.656c0.578,5.000,0.875,11.234,0.875,17.031    c0,35.14-15.984,73.499-43.844,105.265c-12.25,13.953-25.969,25.625-39.687,33.766c-12.234,7.264-23.844,11.264-32.688,11.264    s-20.452-4-32.687-11.264c-13.719-8.141-27.438-19.812-39.688-33.766C155.766,264.985,139.782,226.626,139.782,191.486z     M350.232,359.812c-4.531,11.719-12.047,26.188-24.234,38.781c-18,18.625-41.577,28.062-70.062,28.062    c-28.062,0-51.358-9.25-69.249-27.531c-12.469-12.719-20.172-27.516-24.797-39.406c5.797-4.688,10.5-9.812,13.328-15.375    c0.391-0.75,0.672-1.391,0.828-1.75l1.781-3.953l0.031-4.498l0.094-12.328c25.672,25.404,55.031,41.295,78.046,41.295    c23.016,0,52.374-15.891,78.062-41.295l0.078,12.328l0.031,4.529l1.797,3.953c0.141,0.344,0.422,0.969,0.797,1.703    C339.623,349.905,344.373,355.077,350.232,359.812z M403.045,405.468c-3.75,11.125-6.422,23.984-7.938,38.219    c-1.516,14.281-1.875,30.031-1.078,46.969h-138.03H118.017c0.797-16.938,0.438-32.688-1.078-46.969    c-1.516-14.234-4.188-27.094-7.938-38.219c-2.141-6.344-4.406-11.469-6.531-15.547c2.078-0.984,4.031-1.859,5.938-2.578    c10.891-4.156,23.672-9.406,35.312-15.75c12.608,29.656,43.421,76.406,112.217,76.406c34.483,0,63.218-11.641,85.405-34.578    c13.109-13.578,21.641-28.797,27.094-41.734c11.594,6.297,24.312,11.531,35.172,15.656c1.922,0.734,3.859,1.609,5.969,2.594    C407.451,393.999,405.186,399.124,403.045,405.468z M479.185,490.655h-63.796c-2.656-53.312,7.531-80.562,13.734-91.938    c6.265,2.469,13.843,5.047,23.546,7.656l1.188,0.344c15.172,5.188,25.328,19.266,25.328,35.156V490.655z" fill="#171717"/>
	</g>
</g>
<g>
</g>
<g>
</g>
<g>
</g>
<g>
</g>
<g>
</g>
<g>
</g>
<g>
</g>
<g>
</g>
<g>
</g>
<g>
</g>
<g>
</g>
<g>
</g>
<g>
</g>
<g>
</g>
<g>
</g>
</svg>
